<svg xmlns="http://www.w3.org/2000/svg" width="26" height="26" fill="none"><path fill="#3363FF" d="M15.363 4.632c.433.116.69.562.574.995l-4.305 16.066a.812.812 0 1 1-1.57-.421l4.305-16.066a.813.813 0 0 1 .996-.574m2.45 3.307a.813.813 0 0 1 1.147-.06l1.882 1.693c.798.718 1.46 1.314 1.914 1.854.478.568.817 1.178.817 1.931s-.34 1.364-.817 1.932c-.454.54-1.116 1.135-1.914 1.853l-1.882 1.694a.812.812 0 1 1-1.087-1.208l1.838-1.654c.853-.768 1.429-1.289 1.802-1.732.357-.425.435-.673.435-.885s-.078-.46-.435-.885c-.373-.443-.949-.964-1.802-1.732l-1.838-1.654a.813.813 0 0 1-.06-1.147M8.127 9.086A.812.812 0 1 0 7.04 7.878L5.157 9.572c-.797.718-1.459 1.314-1.913 1.854-.478.568-.818 1.178-.818 1.931s.34 1.364.818 1.932c.454.54 1.116 1.135 1.913 1.853l1.883 1.694a.812.812 0 1 0 1.087-1.208l-1.838-1.654c-.854-.768-1.429-1.289-1.802-1.732-.358-.425-.436-.673-.436-.885s.078-.46.436-.885c.373-.443.948-.964 1.802-1.732z"/></svg>