<svg xmlns="http://www.w3.org/2000/svg" width="120" height="40" fill="none"><g fill="#575F75" clip-path="url(#a)"><path d="M22.961 20.097c.444-.122.965-.152 1.428.04a5.3 5.3 0 0 1 1.004.538c.326.215.618.468.904.763a5.8 5.8 0 0 1 1.296 2.2 7 7 0 0 1 .287 2.915 8.4 8.4 0 0 1-1.03 3.154 3.15 3.15 0 0 1-1.51 1.33 3 3 0 0 1-.451.137 2 2 0 0 1-.439.05 1.65 1.65 0 0 1-.778-.172c-.453-.24-.66-.662-.684-1.117-.024-.459.125-.955.43-1.407.376-.567.635-1.19.769-1.817a4.8 4.8 0 0 0 .042-1.834 5 5 0 0 0-.234-.84 5 5 0 0 0-.169-.387 4.6 4.6 0 0 0-1.288-1.563c-.347-.277-.573-.569-.653-.824-.088-.26-.03-.49.197-.707a1.5 1.5 0 0 1 .382-.263 2.5 2.5 0 0 1 .497-.195zm-3.037 5.065c.325.321.612.755.681 1.256.027.189.04.372.047.562a5.4 5.4 0 0 1-.22 1.735 5.8 5.8 0 0 1-1.26 2.223 7 7 0 0 1-2.374 1.701c-.955.425-2.07.68-3.247.692a3.16 3.16 0 0 1-1.915-.646c-.512-.4-.827-.928-.846-1.44-.018-.51.245-.9.628-1.15a2.1 2.1 0 0 1 .657-.271 2.7 2.7 0 0 1 .777-.057 5.3 5.3 0 0 0 1.96-.24c.304-.096.593-.229.862-.371q.203-.116.389-.242c.124-.082.243-.18.357-.273.227-.185.43-.404.61-.619a4.6 4.6 0 0 0 .466-.7c.263-.49.423-1.011.499-1.536.031-.223.085-.417.152-.579a1.5 1.5 0 0 1 .171-.318q.032-.045.066-.084c.183-.197.406-.272.709-.18a1.8 1.8 0 0 1 .416.2c.14.09.284.207.415.336zm-5.897-.096c-.115.44-.349.905-.748 1.216a5.5 5.5 0 0 1-2.079.996 5.8 5.8 0 0 1-2.553.023 7 7 0 0 1-2.667-1.204c-.852-.617-1.62-1.46-2.221-2.475a3.12 3.12 0 0 1-.355-2.215 2.4 2.4 0 0 1 .24-.629c.14-.247.33-.447.543-.584.429-.27.898-.238 1.308-.033.207.103.395.251.562.432q.131.136.241.298.107.161.201.346c.299.61.707 1.15 1.183 1.578a4.9 4.9 0 0 0 1.568.952c.284.098.559.174.844.216.279.046.564.06.838.052a4.7 4.7 0 0 0 1.58-.339c.204-.081.405-.136.58-.157.085-.01.172-.02.25-.018.078 0 .147.012.215.024.268.06.445.22.517.529.066.276.047.624-.05.99zm-2.867-5.164c-.445.122-.965.152-1.428-.04a5.3 5.3 0 0 1-1.004-.538 5.4 5.4 0 0 1-.904-.763 5.8 5.8 0 0 1-1.296-2.2 7 7 0 0 1-.287-2.915 8.4 8.4 0 0 1 1.03-3.154 3.15 3.15 0 0 1 1.51-1.33c.15-.06.303-.105.45-.137a2 2 0 0 1 .44-.05c.288 0 .55.052.778.172.453.24.659.662.684 1.117.024.46-.125.955-.43 1.407a5.3 5.3 0 0 0-.769 1.817 4.8 4.8 0 0 0-.042 1.834 5 5 0 0 0 .234.84q.077.2.168.387a4.6 4.6 0 0 0 1.288 1.563c.348.277.574.569.654.824.088.26.03.49-.197.707a1.6 1.6 0 0 1-.382.263 2.5 2.5 0 0 1-.497.195zm3.036-5.064c-.325-.32-.611-.754-.68-1.255a5 5 0 0 1-.048-.563 5.4 5.4 0 0 1 .22-1.735 5.8 5.8 0 0 1 1.26-2.222 7 7 0 0 1 2.374-1.701 8.2 8.2 0 0 1 3.248-.695 3.16 3.16 0 0 1 1.914.646c.512.4.827.928.846 1.44.018.51-.244.9-.627 1.15-.19.121-.416.215-.658.271a2.7 2.7 0 0 1-.777.057 5.3 5.3 0 0 0-1.96.24 5 5 0 0 0-.862.371 6 6 0 0 0-.389.242c-.123.082-.243.18-.357.273a4.6 4.6 0 0 0-.61.619 4.6 4.6 0 0 0-.466.7 4.7 4.7 0 0 0-.499 1.536 2.4 2.4 0 0 1-.152.579 1.5 1.5 0 0 1-.171.318q-.032.045-.065.084c-.184.197-.408.273-.71.18a1.8 1.8 0 0 1-.416-.2 3 3 0 0 1-.415-.336zm5.897.097c.115-.44.349-.905.748-1.216a5.5 5.5 0 0 1 2.08-.996 5.8 5.8 0 0 1 2.552-.023 7 7 0 0 1 2.667 1.204c.852.617 1.621 1.46 2.222 2.475a3.12 3.12 0 0 1 .354 2.215 3 3 0 0 1-.065.224 2.4 2.4 0 0 1-.177.405c-.14.247-.328.447-.542.584-.43.27-.898.238-1.308.033a2 2 0 0 1-.563-.432 2.3 2.3 0 0 1-.24-.298 4 4 0 0 1-.201-.346 5.2 5.2 0 0 0-1.184-1.578 4.9 4.9 0 0 0-1.567-.952 4.7 4.7 0 0 0-.844-.216 4.4 4.4 0 0 0-.839-.052 4.7 4.7 0 0 0-1.578.339 2.4 2.4 0 0 1-.58.157 2 2 0 0 1-.25.018c-.08 0-.149-.012-.216-.025-.268-.06-.445-.22-.517-.528-.066-.276-.047-.624.05-.99z"/></g><path fill="#575F75" d="M115.787 26.947v-6.075q0-1.029-.509-1.602-.51-.584-1.38-.584-.537 0-.963.25-.426.24-.676.723-.25.472-.25 1.13l-.991-.584q-.01-1.037.463-1.824a3.4 3.4 0 0 1 1.297-1.241 3.7 3.7 0 0 1 1.815-.445q1.657 0 2.537 1 .89.992.889 2.612v6.64zm-12.029 0V16.945h1.972v3.103h.278v6.899zm6.028 0V20.9q0-1.047-.509-1.63-.51-.584-1.389-.584-.852 0-1.371.584-.509.583-.509 1.518l-1-.666q0-.973.482-1.75a3.43 3.43 0 0 1 1.296-1.223 3.76 3.76 0 0 1 1.843-.454q1.12 0 1.87.482.76.473 1.13 1.296.38.816.38 1.843v6.63h-2.223zm-13.853.287q-1.111 0-1.834-.37a3.24 3.24 0 0 1-1.148-.945 4.1 4.1 0 0 1-.63-1.223 6.5 6.5 0 0 1-.268-1.222 10 10 0 0 1-.056-.945v-5.584h2.26v4.816q0 .463.064 1.046.065.574.297 1.112.24.527.704.87.471.342 1.268.343.426 0 .843-.14.417-.139.75-.472.342-.342.546-.935.204-.592.204-1.5l1.324.565q0 1.278-.5 2.315a3.94 3.94 0 0 1-1.454 1.657q-.963.612-2.37.612m3.269-.287v-3.103h-.269v-6.899h2.241v10.002zm-9.17 0a9 9 0 0 1-1.945.157 4.5 4.5 0 0 1-1.695-.343q-.75-.333-1.139-1.046a3 3 0 0 1-.36-1.324q-.02-.676-.02-1.528v-8.696h2.223v8.566q0 .601.01 1.056.018.454.194.74.333.556 1.065.62a7.2 7.2 0 0 0 1.667-.073zm-6.973-8.252v-1.75h6.973v1.75zm-3.565 8.252V22.13q0-.472-.065-1.046a3.6 3.6 0 0 0-.306-1.102 2.1 2.1 0 0 0-.704-.88q-.462-.343-1.259-.343a2.7 2.7 0 0 0-.843.14 1.94 1.94 0 0 0-.759.48q-.333.334-.537.927-.204.583-.204 1.5l-1.324-.565q0-1.277.49-2.315a3.94 3.94 0 0 1 1.464-1.648q.963-.62 2.37-.62 1.112 0 1.834.37a3.24 3.24 0 0 1 1.148.944q.426.574.63 1.223.203.648.26 1.231.064.575.064.936v5.584h-2.26zm-6.936 0V16.945h1.99v3.102h.27v6.9zm-7.857.278q-1.083 0-1.833-.408-.75-.416-1.14-1.102a3.06 3.06 0 0 1-.379-1.509q0-.723.24-1.296.241-.585.742-1 .5-.427 1.296-.695.601-.195 1.408-.352.815-.157 1.76-.287.953-.14 1.99-.296l-.796.453q.01-1.036-.463-1.528-.472-.49-1.593-.49a2.9 2.9 0 0 0-1.306.314q-.63.316-.88 1.084l-2.037-.64a3.8 3.8 0 0 1 1.408-2.036q1.046-.77 2.815-.769 1.334 0 2.343.435a2.9 2.9 0 0 1 1.51 1.426q.268.528.323 1.084.056.546.056 1.194v6.14h-1.954V24.78l.324.352q-.675 1.083-1.583 1.593-.9.5-2.25.5zm.445-1.778q.759 0 1.296-.269a2.5 2.5 0 0 0 .852-.657q.325-.39.436-.732a2.8 2.8 0 0 0 .194-.972q.028-.556.028-.898l.685.203q-1.01.158-1.732.278t-1.24.232a8 8 0 0 0-.917.231q-.39.139-.658.324a1.4 1.4 0 0 0-.417.426q-.138.241-.138.565 0 .37.185.658.184.277.537.444.36.167.889.167m-11.084 1.787q-1.111 0-1.834-.37a3.24 3.24 0 0 1-1.148-.945 4.1 4.1 0 0 1-.63-1.223 6.6 6.6 0 0 1-.269-1.222 10 10 0 0 1-.055-.945v-5.584h2.26v4.816q0 .463.064 1.046.065.574.297 1.112.24.527.703.87.472.342 1.27.343.425 0 .842-.14.417-.139.75-.472.342-.342.546-.935.204-.592.204-1.5l1.324.565q0 1.278-.5 2.315a3.94 3.94 0 0 1-1.454 1.657q-.963.612-2.37.612m3.269-.287v-3.103h-.269v-6.899h2.241v10.002zm-10.456.278-3.806-3.788 1.398-1.398 3.788 3.787zm-4.797 0q-2 0-3.426-.87-1.426-.88-2.195-2.445-.76-1.566-.76-3.63t.76-3.63q.768-1.566 2.195-2.436 1.426-.88 3.426-.88t3.427.88q1.435.87 2.194 2.435.77 1.566.769 3.63 0 2.065-.769 3.63-.759 1.566-2.194 2.445-1.426.87-3.427.87zm0-2.102q1.343.009 2.232-.593.898-.602 1.343-1.695.453-1.092.453-2.556 0-1.462-.453-2.537-.445-1.083-1.343-1.685-.89-.602-2.232-.62-1.343-.01-2.232.592-.888.602-1.342 1.695-.445 1.092-.445 2.555t.445 2.547q.444 1.074 1.333 1.676.898.602 2.241.62z"/><defs><clipPath id="a"><path fill="#fff" d="M3.333 6.667h27.453v26.667H3.333z"/></clipPath></defs></svg>