<svg xmlns="http://www.w3.org/2000/svg" width="1128" height="545" fill="none"><g opacity=".6"><path fill="url(#a)" fill-opacity=".02" d="M213.945 27.723h152.577v426.95H213.945z" transform="rotate(28.66 213.945 27.723)"/><path stroke="url(#b)" stroke-opacity=".2" d="M348.267 101.141 143.493 475.78"/><path fill="url(#c)" d="M213.945 27.723h152.577v109.53H213.945z" transform="rotate(28.66 213.945 27.723)"/><path fill="url(#d)" d="M143.055 475.541h152.577v109.53H143.055z" transform="rotate(-151.339 143.055 475.541)"/><path fill="url(#e)" fill-opacity=".02" d="M984.943 69.456h152.577v426.95H984.943z" transform="rotate(28.66 984.943 69.456)"/><path stroke="url(#f)" stroke-opacity=".2" d="M1119.26 142.875 914.491 517.514"/><path fill="url(#g)" d="M984.943 69.456h152.577v109.53H984.943z" transform="rotate(28.66 984.943 69.456)"/><path fill="url(#h)" d="M914.053 517.274h152.577v109.53H914.053z" transform="rotate(-151.339 914.053 517.274)"/></g><defs><linearGradient id="a" x1="366.523" x2="213.945" y1="241.198" y2="241.198" gradientUnits="userSpaceOnUse"><stop stop-color="#fff"/><stop offset="1" stop-color="#fff" stop-opacity="0"/></linearGradient><linearGradient id="b" x1="347.389" x2="142.616" y1="100.662" y2="475.301" gradientUnits="userSpaceOnUse"><stop stop-color="#fff" stop-opacity="0"/><stop offset=".54" stop-color="#3363FF"/><stop offset="1" stop-color="#fff" stop-opacity="0"/></linearGradient><linearGradient id="c" x1="290.234" x2="290.234" y1="27.723" y2="137.252" gradientUnits="userSpaceOnUse"><stop stop-color="#00020F"/><stop offset="1" stop-color="#00020F" stop-opacity="0"/></linearGradient><linearGradient id="d" x1="219.343" x2="219.343" y1="475.541" y2="585.071" gradientUnits="userSpaceOnUse"><stop stop-color="#00020F"/><stop offset="1" stop-color="#00020F" stop-opacity="0"/></linearGradient><linearGradient id="e" x1="1137.52" x2="984.943" y1="282.931" y2="282.931" gradientUnits="userSpaceOnUse"><stop stop-color="#fff"/><stop offset="1" stop-color="#fff" stop-opacity="0"/></linearGradient><linearGradient id="f" x1="1118.39" x2="913.614" y1="142.395" y2="517.034" gradientUnits="userSpaceOnUse"><stop stop-color="#fff" stop-opacity="0"/><stop offset=".54" stop-color="#3363FF"/><stop offset="1" stop-color="#fff" stop-opacity="0"/></linearGradient><linearGradient id="g" x1="1061.23" x2="1061.23" y1="69.456" y2="178.986" gradientUnits="userSpaceOnUse"><stop stop-color="#00020F"/><stop offset="1" stop-color="#00020F" stop-opacity="0"/></linearGradient><linearGradient id="h" x1="990.341" x2="990.341" y1="517.274" y2="626.804" gradientUnits="userSpaceOnUse"><stop stop-color="#00020F"/><stop offset="1" stop-color="#00020F" stop-opacity="0"/></linearGradient></defs></svg>