<svg xmlns="http://www.w3.org/2000/svg" width="71" height="70" fill="none"><rect width="69" height="69" x="1" y=".5" stroke="url(#a)" stroke-opacity=".5" rx="34.5"/><rect width="57" height="57" x="7" y="6.5" fill="url(#b)" fill-opacity=".3" rx="28.5"/><rect width="57" height="57" x="7" y="6.5" stroke="url(#c)" rx="28.5"/><g filter="url(#d)"><rect width="46" height="46" x="12.5" y="12" fill="url(#e)" rx="23"/><path fill="#CCD8FF" d="m27.576 40-3.87-10.5h1.815l3.09 8.745 3.105-8.745h1.8L29.631 40zm5.377 1.59 3.75-13.185h1.665L34.603 41.59zm10.307-1.41q-1.08 0-1.965-.375a3.35 3.35 0 0 1-1.41-1.125q-.51-.75-.525-1.845h1.785q.015.84.585 1.38.57.525 1.515.525.84 0 1.35-.39t.51-1.095q0-.405-.135-.675-.135-.285-.45-.495-.315-.225-.84-.42-.525-.21-1.335-.48-.945-.315-1.545-.72-.6-.42-.885-.96-.27-.555-.27-1.23 0-.96.45-1.62.465-.66 1.245-.99a4.4 4.4 0 0 1 1.755-.345q.975 0 1.755.345t1.26 1.02q.48.66.495 1.62H44.79q0-.645-.48-1.095t-1.275-.45q-.675-.015-1.155.345-.465.36-.465 1.05 0 .48.3.795.315.315.885.555t1.38.525q.495.165 1.005.39.525.225.945.585.435.345.705.87.27.51.27 1.275 0 .945-.495 1.635-.48.675-1.305 1.035t-1.845.36"/></g><defs><radialGradient id="b" cx="0" cy="0" r="1" gradientTransform="rotate(90 63.325 -27.825)scale(206.625)" gradientUnits="userSpaceOnUse"><stop stop-color="#003BFF"/><stop offset=".75" stop-color="#003BFF" stop-opacity="0"/></radialGradient><radialGradient id="e" cx="0" cy="0" r="1" gradientTransform="rotate(90 50.275 -14.775)scale(163.875)" gradientUnits="userSpaceOnUse"><stop stop-color="#003BFF"/><stop offset=".75" stop-color="#003BFF" stop-opacity="0"/></radialGradient><linearGradient id="a" x1="35.5" x2="35.5" y1="0" y2="70" gradientUnits="userSpaceOnUse"><stop stop-color="#171D45"/><stop offset="1" stop-color="#171D45" stop-opacity="0"/></linearGradient><linearGradient id="c" x1="35.5" x2="35.5" y1="6" y2="64" gradientUnits="userSpaceOnUse"><stop stop-color="#171D45"/><stop offset="1" stop-color="#171D45" stop-opacity="0"/></linearGradient><filter id="d" width="58" height="58" x="6.5" y="6" color-interpolation-filters="sRGB" filterUnits="userSpaceOnUse"><feFlood flood-opacity="0" result="BackgroundImageFix"/><feGaussianBlur in="BackgroundImageFix" stdDeviation="3"/><feComposite in2="SourceAlpha" operator="in" result="effect1_backgroundBlur_2142_230290"/><feBlend in="SourceGraphic" in2="effect1_backgroundBlur_2142_230290" result="shape"/></filter></defs></svg>